{
  "accessors": [
    {
      "bufferView": 2,
      "componentType": 5126,
      "count": 380,
      "max": [
        47.72322082519531,
        32.89877700805664,
        52.595855712890625
      ],
      "min": [
        -14.701858520507813,
        -15.707923889160156,
        44.062347412109375
      ],
      "type": "VEC3"
    },
    {
      "bufferView": 2,
      "byteOffset": 4560,
      "componentType": 5126,
      "count": 380,
      "max": [
        0.702225923538208,
        0.9091727137565613,
        0.9999483823776245
      ],
      "min": [
        -0.7025392055511475,
        -0.908784806728363,
        -0.9999275207519531
      ],
      "type": "VEC3"
    },
    {
      "bufferView": 1,
      "componentType": 5126,
      "count": 380,
      "max": [
        1.0,
        1.0
      ],
      "min": [
        0.0,
        0.0
      ],
      "type": "VEC2"
    },
    {
      "bufferView": 1,
      "byteOffset": 3040,
      "componentType": 5126,
      "count": 380,
      "max": [
        0.9347369074821472,
        0.9648061990737915
      ],
      "min": [
        0.3537704050540924,
        0.4370947778224945
      ],
      "type": "VEC2"
    },
    {
      "bufferView": 0,
      "componentType": 5125,
      "count": 1632,
      "type": "SCALAR"
    },
    {
      "bufferView": 2,
      "byteOffset": 9120,
      "componentType": 5126,
      "count": 331,
      "max": [
        -9.192901611328125,
        35.294132232666016,
        51.256378173828125
      ],
      "min": [
        -46.32350158691406,
        -35.37413024902344,
        -53.759674072265625
      ],
      "type": "VEC3"
    },
    {
      "bufferView": 2,
      "byteOffset": 13092,
      "componentType": 5126,
      "count": 331,
      "max": [
        1.0,
        1.0,
        1.0
      ],
      "min": [
        -1.0,
        -1.0,
        -1.0
      ],
      "type": "VEC3"
    },
    {
      "bufferView": 3,
      "componentType": 5126,
      "count": 331,
      "max": [
        1.0,
        1.0,
        1.0,
        1.0
      ],
      "min": [
        -1.0,
        -0.005061879754066467,
        -1.0,
        -1.0
      ],
      "type": "VEC4"
    },
    {
      "bufferView": 1,
      "byteOffset": 6080,
      "componentType": 5126,
      "count": 331,
      "max": [
        0.9888785481452942,
        0.9939692616462708
      ],
      "min": [
        0.006333276629447937,
        0.05388849973678589
      ],
      "type": "VEC2"
    },
    {
      "bufferView": 1,
      "byteOffset": 8728,
      "componentType": 5126,
      "count": 331,
      "max": [
        0.0,
        0.0
      ],
      "min": [
        0.0,
        0.0
      ],
      "type": "VEC2"
    },
    {
      "bufferView": 1,
      "byteOffset": 11376,
      "componentType": 5126,
      "count": 331,
      "max": [
        0.9364702105522156,
        0.9980079531669617
      ],
      "min": [
        0.00186920166015625,
        0.00199204683303833
      ],
      "type": "VEC2"
    },
    {
      "bufferView": 0,
      "byteOffset": 6528,
      "componentType": 5125,
      "count": 576,
      "type": "SCALAR"
    },
    {
      "bufferView": 2,
      "byteOffset": 17064,
      "componentType": 5126,
      "count": 103,
      "max": [
        46.47216796875,
        34.27145767211914,
        53.759674072265625
      ],
      "min": [
        36.88116455078125,
        20.93106460571289,
        42.4151611328125
      ],
      "type": "VEC3"
    },
    {
      "bufferView": 2,
      "byteOffset": 18300,
      "componentType": 5126,
      "count": 103,
      "max": [
        -0.10604400187730789,
        0.7378537654876709,
        0.9870643615722656
      ],
      "min": [
        -0.8573542833328247,
        -0.16575707495212555,
        -0.9842178821563721
      ],
      "type": "VEC3"
    },
    {
      "bufferView": 1,
      "byteOffset": 14024,
      "componentType": 5126,
      "count": 103,
      "max": [
        0.4387233257293701,
        0.545650064945221
      ],
      "min": [
        0.38461512327194214,
        0.49154189229011536
      ],
      "type": "VEC2"
    },
    {
      "bufferView": 1,
      "byteOffset": 14848,
      "componentType": 5126,
      "count": 103,
      "max": [
        0.0,
        0.0
      ],
      "min": [
        0.0,
        0.0
      ],
      "type": "VEC2"
    },
    {
      "bufferView": 1,
      "byteOffset": 15672,
      "componentType": 5126,
      "count": 103,
      "max": [
        0.26953059434890747,
        0.9331870079040527
      ],
      "min": [
        0.06968337297439575,
        0.8698973059654236
      ],
      "type": "VEC2"
    },
    {
      "bufferView": 0,
      "byteOffset": 8832,
      "componentType": 5125,
      "count": 360,
      "type": "SCALAR"
    },
    {
      "bufferView": 2,
      "byteOffset": 19536,
      "componentType": 5126,
      "count": 163,
      "max": [
        -44.89897155761719,
        35.37412643432617,
        31.29010009765625
      ],
      "min": [
        -47.72322082519531,
        -33.7003288269043,
        -53.759613037109375
      ],
      "type": "VEC3"
    },
    {
      "bufferView": 2,
      "byteOffset": 21492,
      "componentType": 5126,
      "count": 163,
      "max": [
        0.0,
        1.0,
        1.0
      ],
      "min": [
        -1.0,
        -1.0,
        -1.0
      ],
      "type": "VEC3"
    },
    {
      "bufferView": 1,
      "byteOffset": 16496,
      "componentType": 5126,
      "count": 163,
      "max": [
        0.8465491533279419,
        0.9093030691146851
      ],
      "min": [
        0.11137160658836365,
        0.2263268083333969
      ],
      "type": "VEC2"
    },
    {
      "bufferView": 1,
      "byteOffset": 17800,
      "componentType": 5126,
      "count": 163,
      "max": [
        0.0,
        0.0
      ],
      "min": [
        0.0,
        0.0
      ],
      "type": "VEC2"
    },
    {
      "bufferView": 1,
      "byteOffset": 19104,
      "componentType": 5126,
      "count": 163,
      "max": [
        0.9358512759208679,
        0.9469320774078369
      ],
      "min": [
        0.00186920166015625,
        0.05470573902130127
      ],
      "type": "VEC2"
    },
    {
      "bufferView": 0,
      "byteOffset": 10272,
      "componentType": 5125,
      "count": 468,
      "type": "SCALAR"
    }
  ],
  "asset": {
    "extras": {
      "author": "Samad.Ahmed (https://sketchfab.com/Samad.Ahmed)",
      "license": "CC-BY-4.0 (http://creativecommons.org/licenses/by/4.0/)",
      "source": "https://sketchfab.com/3d-models/ac-outdoor-unit-low-poly-314f9f270cbe4920bdb002afa937bcf5",
      "title": "AC Outdoor Unit - Low Poly"
    },
    "generator": "Sketchfab-12.66.0",
    "version": "2.0"
  },
  "bufferViews": [
    {
      "buffer": 0,
      "byteLength": 12144,
      "name": "floatBufferViews",
      "target": 34963
    },
    {
      "buffer": 0,
      "byteLength": 20408,
      "byteOffset": 12144,
      "byteStride": 8,
      "name": "floatBufferViews",
      "target": 34962
    },
    {
      "buffer": 0,
      "byteLength": 23448,
      "byteOffset": 32552,
      "byteStride": 12,
      "name": "floatBufferViews",
      "target": 34962
    },
    {
      "buffer": 0,
      "byteLength": 5296,
      "byteOffset": 56000,
      "byteStride": 16,
      "name": "floatBufferViews",
      "target": 34962
    }
  ],
  "buffers": [
    {
      "byteLength": 61296,
      "uri": "scene.bin"
    }
  ],
  "images": [
    {
      "uri": "textures/klima_baseColor.jpeg"
    },
    {
      "uri": "textures/klima_normal.png"
    },
    {
      "uri": "textures/ICR_modelfabric_baseColor.jpeg"
    },
    {
      "uri": "textures/ac_front_baseColor.jpeg"
    }
  ],
  "materials": [
    {
      "doubleSided": true,
      "name": "ac_pipe",
      "pbrMetallicRoughness": {
        "baseColorFactor": [
          0.0,
          0.0,
          0.0,
          1.0
        ],
        "metallicFactor": 0.0,
        "roughnessFactor": 0.9137360232019408
      }
    },
    {
      "doubleSided": true,
      "name": "klima",
      "normalTexture": {
        "index": 1,
        "scale": 0.0
      },
      "pbrMetallicRoughness": {
        "baseColorFactor": [
          0.43340234329873717,
          0.43340234329873717,
          0.43340234329873717,
          1.0
        ],
        "baseColorTexture": {
          "index": 0
        },
        "roughnessFactor": 0.38476095799208365
      }
    },
    {
      "doubleSided": true,
      "name": "ICR_modelfabric",
      "pbrMetallicRoughness": {
        "baseColorFactor": [
          0.056431607172172264,
          0.056431607172172264,
          0.056431607172172264,
          1.0
        ],
        "baseColorTexture": {
          "index": 2
        },
        "metallicFactor": 0.0,
        "roughnessFactor": 0.9258963695286042
      }
    },
    {
      "doubleSided": true,
      "name": "ac_front",
      "pbrMetallicRoughness": {
        "baseColorTexture": {
          "index": 3
        },
        "roughnessFactor": 0.4516428627887322
      }
    }
  ],
  "meshes": [
    {
      "name": "polySurface1_ac_pipe_0",
      "primitives": [
        {
          "attributes": {
            "NORMAL": 1,
            "POSITION": 0,
            "TEXCOORD_0": 2,
            "TEXCOORD_1": 3
          },
          "indices": 4,
          "material": 0,
          "mode": 4
        }
      ]
    },
    {
      "name": "polySurface2_klima_0",
      "primitives": [
        {
          "attributes": {
            "NORMAL": 6,
            "POSITION": 5,
            "TANGENT": 7,
            "TEXCOORD_0": 8,
            "TEXCOORD_1": 9,
            "TEXCOORD_2": 10
          },
          "indices": 11,
          "material": 1,
          "mode": 4
        }
      ]
    },
    {
      "name": "polySurface2_ICR_model:fabric_0",
      "primitives": [
        {
          "attributes": {
            "NORMAL": 13,
            "POSITION": 12,
            "TEXCOORD_0": 14,
            "TEXCOORD_1": 15,
            "TEXCOORD_2": 16
          },
          "indices": 17,
          "material": 2,
          "mode": 4
        }
      ]
    },
    {
      "name": "polySurface2_ac_front_0",
      "primitives": [
        {
          "attributes": {
            "NORMAL": 19,
            "POSITION": 18,
            "TEXCOORD_0": 20,
            "TEXCOORD_1": 21,
            "TEXCOORD_2": 22
          },
          "indices": 23,
          "material": 3,
          "mode": 4
        }
      ]
    }
  ],
  "nodes": [
    {
      "children": [
        1
      ],
      "matrix": [
        1.0,
        0.0,
        0.0,
        0.0,
        0.0,
        -5.053215392444312e-16,
        1.0,
        0.0,
        0.0,
        -1.0,
        -5.053215392444312e-16,
        0.0,
        0.0,
        2.2888183082159233e-07,
        -1.5258788721439482e-07,
        1.0
      ],
      "name": "Sketchfab_model"
    },
    {
      "children": [
        2
      ],
      "matrix": [
        0.009999999776482582,
        0.0,
        0.0,
        0.0,
        0.0,
        -0.009999999776482582,
        0.0,
        0.0,
        0.0,
        0.0,
        -0.009999999776482582,
        0.0,
        0.0,
        0.0,
        0.0,
        1.0
      ],
      "name": "cd7fa0c72605438ca9a61b22eeeae682.fbx"
    },
    {
      "children": [
        3
      ],
      "name": "RootNode"
    },
    {
      "children": [
        4,
        6
      ],
      "matrix": [
        1.0,
        0.0,
        0.0,
        0.0,
        0.0,
        2.220446049250313e-16,
        1.0,
        0.0,
        0.0,
        -1.0,
        2.220446049250313e-16,
        0.0,
        0.0,
        0.0,
        0.0,
        1.0
      ],
      "name": "extrudedSurface4"
    },
    {
      "children": [
        5
      ],
      "name": "polySurface1"
    },
    {
      "mesh": 0,
      "name": "polySurface1_ac_pipe_0"
    },
    {
      "children": [
        7,
        8,
        9
      ],
      "name": "polySurface2"
    },
    {
      "mesh": 1,
      "name": "polySurface2_klima_0"
    },
    {
      "mesh": 2,
      "name": "polySurface2_ICR_model:fabric_0"
    },
    {
      "mesh": 3,
      "name": "polySurface2_ac_front_0"
    }
  ],
  "samplers": [
    {
      "magFilter": 9729,
      "minFilter": 9987,
      "wrapS": 10497,
      "wrapT": 10497
    }
  ],
  "scene": 0,
  "scenes": [
    {
      "name": "Sketchfab_Scene",
      "nodes": [
        0
      ]
    }
  ],
  "textures": [
    {
      "sampler": 0,
      "source": 0
    },
    {
      "sampler": 0,
      "source": 1
    },
    {
      "sampler": 0,
      "source": 2
    },
    {
      "sampler": 0,
      "source": 3
    }
  ]
}
